<?xml version="1.0" standalone="no"?>
<!DOCTYPE svg PUBLIC "-//W3C//DTD SVG 20010904//EN"
 "http://www.w3.org/TR/2001/REC-SVG-20010904/DTD/svg10.dtd">
<svg version="1.0" xmlns="http://www.w3.org/2000/svg"
 width="512.000000pt" height="512.000000pt" viewBox="0 0 512.000000 512.000000"
 preserveAspectRatio="xMidYMid meet">
<metadata>
Created by potrace 1.16, written by Peter Selinger 2001-2019
</metadata>
<g transform="translate(0.000000,512.000000) scale(0.100000,-0.100000)"
fill="#000000" stroke="none">
<path d="M263 5101 c-104 -38 -179 -107 -231 -211 l-27 -55 0 -2275 0 -2275
29 -60 c38 -77 114 -153 191 -191 l60 -29 2275 0 2275 0 60 29 c77 38 153 114
191 191 l29 60 0 2275 0 2275 -29 60 c-38 77 -114 153 -191 191 l-60 29 -2260
2 c-2184 2 -2262 2 -2312 -16z m846 -895 c8 -9 10 -121 9 -392 l-3 -379 -40 0
-40 0 -3 379 c-1 271 1 383 9 392 6 8 22 14 34 14 12 0 28 -6 34 -14z m1989
-68 c7 -7 12 -40 12 -80 l0 -68 69 0 c50 0 74 -4 85 -16 19 -18 19 -20 6 -45
-9 -16 -22 -19 -85 -19 l-75 0 0 -174 c0 -208 5 -226 57 -225 21 0 47 4 58 8
30 13 55 -5 55 -40 0 -25 -6 -33 -35 -45 -42 -17 -121 -18 -155 -1 -13 7 -35
28 -47 46 -22 33 -23 42 -23 232 l0 198 -52 3 c-50 3 -53 5 -56 32 -4 35 10
46 66 46 l42 0 0 68 c0 72 10 92 45 92 12 0 26 -5 33 -12z m-2330 -154 c73
-30 122 -97 143 -194 9 -43 8 -55 -5 -75 l-16 -25 -185 0 -185 0 0 -32 c0 -47
37 -114 74 -138 40 -24 123 -27 165 -6 15 8 40 33 54 55 29 43 50 50 81 26 24
-18 16 -48 -25 -99 -45 -54 -98 -76 -184 -76 -108 0 -180 41 -225 130 -61 119
-38 303 47 386 64 61 179 82 261 48z m810 0 c73 -30 122 -97 143 -194 9 -43 8
-55 -5 -75 l-16 -25 -185 0 -185 0 0 -32 c0 -47 37 -114 74 -138 40 -24 123
-27 165 -6 15 8 40 33 54 55 29 43 50 50 81 26 24 -18 16 -48 -25 -99 -45 -54
-98 -76 -184 -76 -108 0 -180 41 -225 130 -61 119 -38 303 47 386 64 61 179
82 261 48z m1142 -6 c78 -40 84 -60 90 -308 3 -118 4 -221 2 -227 -5 -16 -64
-17 -80 -1 -7 7 -12 20 -12 30 0 15 -8 12 -51 -14 -58 -37 -151 -49 -213 -28
-82 27 -125 127 -92 214 34 88 94 121 252 138 l106 12 -6 41 c-4 25 -16 48
-33 64 -23 20 -34 23 -91 19 -57 -4 -67 -8 -88 -34 -49 -61 -54 -65 -77 -58
-12 3 -28 12 -36 19 -31 30 33 115 105 140 63 23 172 19 224 -7z m1216 -2 c82
-38 130 -116 141 -229 16 -179 -75 -313 -221 -324 -84 -7 -124 1 -178 37 -108
72 -147 275 -78 411 23 44 84 98 131 115 58 21 148 17 205 -10z m651 -2 c15
-11 38 -40 51 -65 21 -42 22 -52 20 -259 l-3 -215 -40 0 -40 0 -5 207 c-5 190
-7 209 -26 235 -49 66 -160 48 -219 -36 l-30 -43 -5 -181 -5 -182 -34 -3 c-20
-2 -37 2 -42 10 -5 7 -9 128 -9 269 0 280 1 284 57 277 25 -3 29 -8 33 -46 l5
-44 23 32 c37 49 94 71 174 68 48 -3 75 -9 95 -24z m-2674 -94 c22 -58 59
-161 82 -229 l43 -124 17 59 c18 63 115 331 136 377 18 41 89 36 89 -7 0 -27
-178 -485 -198 -508 -9 -10 -29 -18 -47 -18 -18 0 -38 8 -47 18 -17 20 -198
479 -198 503 0 25 23 40 55 37 28 -3 32 -9 68 -108z m1532 -170 l0 -275 -34
-3 c-20 -2 -37 2 -42 10 -10 15 -12 508 -3 533 5 12 17 15 43 13 l36 -3 0
-275z m-1518 -1463 c20 -20 408 -978 420 -1037 3 -17 -2 -31 -15 -43 -24 -22
-78 -25 -97 -6 -7 8 -39 83 -70 167 l-58 152 -252 0 -253 0 -57 -152 c-31 -84
-61 -159 -67 -165 -16 -20 -75 -16 -98 7 -11 11 -20 24 -20 30 0 22 402 1020
420 1043 33 42 106 44 147 4z m1731 5 c9 -12 12 -136 12 -541 0 -474 -2 -526
-17 -543 -19 -22 -85 -25 -102 -4 -8 9 -10 162 -9 552 l3 538 25 13 c29 14 70
7 88 -15z m-578 7 c79 -13 151 -50 196 -103 94 -109 85 -331 -18 -442 -74 -80
-171 -103 -435 -104 l-163 0 0 -208 c0 -240 -3 -252 -70 -252 -29 0 -42 5 -50
20 -7 14 -10 180 -8 524 3 488 4 505 23 526 39 44 69 49 270 50 105 0 219 -5
255 -11z"/>
<path d="M627 3916 c-59 -22 -85 -51 -101 -118 l-6 -28 150 0 c170 0 167 -2
129 77 -32 65 -102 94 -172 69z"/>
<path d="M1437 3916 c-59 -22 -85 -51 -101 -118 l-6 -28 150 0 c170 0 167 -2
129 77 -32 65 -102 94 -172 69z"/>
<path d="M2585 3703 c-94 -20 -135 -57 -135 -123 0 -74 101 -105 184 -57 56
32 79 67 84 132 l4 55 -58 -1 c-33 -1 -68 -3 -79 -6z"/>
<path d="M3752 3904 c-64 -33 -98 -116 -90 -222 10 -145 118 -221 234 -166
103 49 116 285 20 373 -34 32 -116 39 -164 15z"/>
<path d="M1829 2083 c-12 -38 -57 -158 -100 -268 -44 -110 -79 -203 -79 -207
0 -5 92 -8 205 -8 113 0 205 2 205 5 0 3 -43 117 -95 254 -52 138 -95 257 -95
265 0 40 -21 19 -41 -41z"/>
<path d="M2672 2138 c-9 -9 -12 -69 -12 -210 l0 -198 198 0 c169 0 203 3 237
19 106 48 146 184 89 298 -20 42 -35 57 -77 77 -49 25 -57 26 -237 26 -131 0
-190 -4 -198 -12z"/>
</g>
</svg>
